PathFileType	4	(X/Y/Z)	Patient4_TMGait_0pt3_03_right_08.trc.trc
DataRate	CameraRate	NumFrames	NumMarkers	Units	OrigDataRate	OrigDataStartFrame	OrigNumFrames
53.435114503817	53.435114503817	6	33	mm	53.435114503817	89	       141
Frame#	Time	Sacral			L.Shoulder			Chest			R.Shoulder			Neck			R.ASIS			L.ASIS			R.Thigh.Superior			R.Thigh.Lateral			R.Thigh.Inferior			R.Patella			L.Thigh.Superior			L.Thigh.Lateral			L.Thigh.Inferior			L.Patella			L.Shank.Superior			L.Shank.Lateral			L.Shank.Inferior			R.Shank.Superior			R.Shank.Lateral			R.Shank.Inferior			R.Heel			R.Midfoot.Superior			R.Midfoot.Lateral			R.Toe			L.Heel			L.Midfoot.Lateral			L.Midfoot.Superior			L.Toe			L.Elbow			L.Wrist			R.Elbow			R.Wrist			
		X1	Y1	Z1	X2	Y2	Z2	X3	Y3	Z3	X4	Y4	Z4	X5	Y5	Z5	X6	Y6	Z6	X7	Y7	Z7	X8	Y8	Z8	X9	Y9	Z9	X10	Y10	Z10	X11	Y11	Z11	X12	Y12	Z12	X13	Y13	Z13	X14	Y14	Z14	X15	Y15	Z15	X16	Y16	Z16	X17	Y17	Z17	X18	Y18	Z18	X19	Y19	Z19	X20	Y20	Z20	X21	Y21	Z21	X22	Y22	Z22	X23	Y23	Z23	X24	Y24	Z24	X25	Y25	Z25	X26	Y26	Z26	X27	Y27	Z27	X28	Y28	Z28	X29	Y29	Z29	X30	Y30	Z30	X31	Y31	Z31	X32	Y32	Z32	X33	Y33	Z33	

89	16.826857142857	783.459517410316	1004.350296871332	511.306697749699	940.721127444791	1428.199280100743	311.245438093568	1068.014205221577	1355.087755137404	452.347866474078	1017.160290825762	1432.250271907531	635.865307067621	947.851323612289	1487.545104260621	470.395973725283	1020.735533610398	927.387629270530	601.810228121680	980.417468103838	956.603708253469	331.799706346635	1009.134545150782	715.504839218566	580.168044905620	903.914169316711	624.050878022051	645.662276869713	963.059251001245	554.485195520031	567.443592601809	938.003333121930	462.138802269955	578.012505384493	1054.990170903099	766.268014998191	373.159925107447	995.578462832433	634.132191408880	306.618973676968	1091.900831135377	572.444509915156	372.182471273084	1106.067751908397	498.798333561882	376.159120203550	1079.317929087760	424.094314741788	367.326440824193	994.569667238827	308.118313028452	313.340389282607	1048.184194882012	196.092907159740	379.314976222589	877.476345613807	388.185813325473	586.684556742123	773.713370467588	317.185947345983	650.330234165903	782.031506455313	211.387319627101	591.769852084283	601.885476278479	81.791573138932	562.340426258574	780.046398091421	103.522015114675	604.949000858147	680.756508791608	55.006952609545	636.580413938793	885.644248820907	36.332423903715	630.073787700693	921.649970071891	40.101921483521	413.851064319879	997.217474902329	37.518965204690	335.158964793767	1081.050115042528	97.414638712456	364.148040346888	1208.717940761160	42.746115866908	336.600022434298	809.807832105418	1101.660249858960	211.823067653977	822.694375914975	839.830835661317	231.380759466954	1179.338225912903	1130.398761815936	743.474104493014	1434.636765049997	1113.144426734980	708.940498789745	
90	16.845571428571	784.646968340310	1004.882789366260	504.807068313969	944.841329815877	1428.908800622710	307.008824668717	1070.376597129333	1355.286126381113	449.407299284033	1017.568643243455	1432.150600650207	632.501229542979	950.136449712252	1487.982972064735	466.435731875435	1020.901140478795	927.853387284061	597.703368688923	983.412085117452	956.500383070788	327.348579939676	1009.803969224054	715.975650109232	577.577132620462	904.287631821210	624.873552495197	643.015915041617	964.633344912937	554.647992326420	566.077467341095	939.612208787478	461.593302744174	577.747275504265	1056.843011341583	765.713357239996	369.390535184399	996.701511844679	633.548167975830	303.484546543440	1092.639906834865	571.555837990129	369.409109942821	1106.303766906305	497.693078680889	373.875545286441	1078.528441483378	422.902452947970	365.516354095497	992.445365567190	307.692206905713	312.079394886959	1044.386372921534	195.478758605683	378.774135020834	877.727530749683	388.566064775632	586.288856890144	772.311145652006	319.663604451637	649.537795991501	779.837558073223	213.043547533676	592.081384606415	597.714806975688	86.069022013244	562.797825127895	776.425787470216	104.044340096652	605.629475082074	676.048203520326	57.189389821985	636.859586696957	880.215333393729	36.240713922488	630.049216407318	916.081212890622	40.169138127015	413.867992483805	991.626093494216	37.502834031719	335.168215477451	1075.579205013142	97.287492929463	364.152396755281	1203.207473833001	42.229495917749	336.550745612660	817.232779752141	1101.697089568870	203.774916647454	836.567951625901	840.164204748445	221.643146846641	1174.337659604236	1126.452906044623	740.425710205436	1429.307382405974	1095.609275805386	711.880879297351	
91	16.864285714286	785.752790062645	1005.379671458292	498.329768052583	949.001895498962	1429.524149490729	302.734156881792	1072.666674649125	1355.439938087111	446.502606538320	1017.834913401832	1432.077889671499	629.106562348438	952.378458243259	1488.413371082132	462.346898501603	1020.899152522845	928.323895489469	593.647187080332	986.323651838800	956.367808428250	322.980414423757	1010.907201788098	716.500228086918	574.981739163118	905.430484560144	625.468108987252	640.383267795050	967.181943989588	554.746951891098	564.687224604495	942.377449228609	460.795120328290	577.570397218949	1058.501478486544	764.989471422622	365.438360066239	997.349552705884	632.913878882983	300.269226005945	1092.871826613764	570.540450238921	366.474589591935	1105.922380068669	496.547486716376	371.469881753417	1077.243793060516	421.712269903030	363.579131949031	989.946056854632	307.186347367006	310.677399200855	1040.362332534441	194.866583231236	378.131763001376	878.981003058252	388.793138716945	585.913744649490	771.801892811202	322.277821199634	648.729825713265	778.264566467620	214.839715090329	592.391641090413	593.959527920558	91.081969264049	563.221618428774	773.064095990197	104.593447488440	606.211332290268	671.556645996728	59.898218571136	637.124108999408	874.750808784127	36.084457887348	630.043744935837	910.488789936615	40.198754636976	413.845983807084	986.016109381905	37.443982554972	335.124705078896	1070.066172365191	97.144725056755	364.096856164568	1197.673548158208	41.786789665094	336.494257486737	825.410925113402	1101.415218071405	195.650444615201	851.312220491390	840.362317197828	211.898948518257	1168.222550850681	1122.203722813091	737.586709654193	1421.794721544610	1076.744224613345	715.175255777091	
92	16.883000000000	786.737070619904	1005.840215302059	491.912424263137	953.171795571698	1430.028127630439	298.440667641594	1074.853475980762	1355.544601737966	443.654256987596	1017.933389537265	1432.042573946426	625.691436259254	954.550986117162	1488.828916059883	458.150468258733	1020.712905759976	928.794604460891	589.693846529824	989.113945197984	956.220744104352	318.750473596097	1012.532536302297	717.106478886512	572.396027225777	907.500847964467	625.819350930830	637.788233160442	970.865429160000	554.802377815879	563.259730789931	946.469467152205	459.772007651451	577.454497975952	1059.945227301563	764.114227147191	361.372734017653	997.560932114378	632.254684533597	297.013358977755	1092.614709296586	569.431004999669	363.455125254476	1104.963097990034	495.382380957589	369.000235257459	1075.498138266762	420.544185452579	361.559179646857	987.112927124286	306.624573891140	309.159201030325	1036.122270032051	194.264489026155	377.414091226305	881.407237309738	388.885827405463	585.542061163032	772.365456281263	325.096745819270	647.896079188606	777.442465985025	216.866737425643	592.690802283347	590.774013343059	97.080890995602	563.583948078848	770.030380623469	105.273620900648	606.679835115583	667.365391573446	63.344542591701	637.356416701335	869.241005910307	35.825427486787	630.075576921216	904.876145492947	40.194779939447	413.786213654195	980.390231657816	37.353498593882	335.032245375577	1064.511664223496	96.996938858151	363.988611810052	1192.118225136722	41.427286408171	336.430878421019	834.401175575423	1100.803743809287	187.496904303732	866.974128536820	840.419345446097	202.221594107231	1160.919262438365	1117.734311012957	734.951077946747	1411.855408119701	1056.767809574578	718.699348301353	
93	16.901714285714	787.555587035535	1006.256219104910	485.593688386198	957.319861843919	1430.402342329350	294.157350385816	1076.905859443611	1355.586929030519	440.890160353815	1017.837988749765	1432.040141142344	622.276063941349	956.630697804938	1489.211649021690	453.887056459497	1020.327748561228	929.255765402225	585.894628395756	991.740834985671	956.063064806851	314.709031543800	1014.749706649917	717.828773480923	569.825410316638	910.633385283875	625.931130821244	635.246776569438	975.806483029018	554.853125277375	561.769313761088	952.019520541195	458.578796004497	577.350168135069	1061.157375848190	763.108063425921	357.270287399441	997.387736991833	631.586943043444	293.765612657876	1091.911708196835	568.257906792567	360.431104264885	1103.496954116398	494.213641476018	366.529336428314	1073.349467748977	419.410159671098	359.508454946937	984.000737212828	306.028172900517	307.562072571125	1031.689943746345	193.677364877789	376.650837534623	885.145961115686	388.882043186312	585.142162050356	774.161862956356	328.193386652242	647.014451643853	777.491401149661	219.227303724181	592.955425388556	588.327948577561	104.307484043156	563.840945452925	767.400600798753	106.222018999627	607.018924925491	663.572633982424	67.747742400425	637.526003037858	863.686942696130	35.435100294895	630.162237817283	899.246883085095	40.164364048389	413.692757416676	974.751294592328	37.242939314154	334.898638230290	1058.919457084228	96.852299168294	363.838270165768	1186.544411140289	41.149906474670	336.361338724379	844.240193666246	1099.873302686868	179.367817768273	883.594906970087	840.353376450107	192.693373851639	1152.375123514836	1113.128450458782	732.498599149902	1399.298131498419	1035.948848882175	722.325329192809	
94	16.920428571429	788.167781877263	1006.609571052496	479.416609094917	961.411862606294	1430.627393913070	289.922775709810	1078.792199055014	1355.546357749389	438.243308264065	1017.523461909060	1432.050423764780	618.890815825209	958.596364173024	1489.534194410976	449.613111235601	1019.734232326223	929.693064715054	582.296161184708	994.161413432542	955.886819055994	310.898502106203	1017.598988399119	718.706324003145	567.265294027189	914.921206965910	625.829848822043	632.764203648383	982.071223060915	554.957482292664	560.177970037074	959.101551459888	457.295718342177	577.186101312668	1062.128702806569	761.992294435936	353.211033213887	996.894978903234	630.915833803288	290.581210186230	1090.832342905172	567.046991688809	357.481427685548	1101.624650093652	493.050306715934	364.120997317764	1070.878819406316	418.312172920104	357.483478591429	980.676315572637	305.414763863741	305.932593107421	1027.102451875624	193.105456138655	375.872912983450	890.288530691431	388.837065765880	584.666689557245	777.312827516833	331.636217620802	646.048546224585	778.510426246368	222.024279453713	593.144441617497	586.792828427080	112.957473703428	563.930669173685	765.256293942668	107.599514688296	607.210128423146	660.289091334784	73.308377990407	637.587391442930	858.111206588888	34.903708782700	630.315985228028	893.604811266855	40.116347535148	413.571506300568	969.102433832363	37.123190090152	334.734200208075	1053.295949945869	96.716046516404	363.658759521804	1180.955696341969	40.945616936547	336.286704991092	854.936514433453	1098.653612094815	171.323499229854	901.207084153302	840.207125089486	183.402177431561	1142.558509927561	1108.464219484713	730.198365181998	1383.991844251691	1014.594251469611	725.927296589765	
